<mxfile host="app.diagrams.net" agent="Mozilla/5.0 (Windows NT 10.0; Win64; x64) AppleWebKit/537.36 (KHTML, like Gecko) Chrome/131.0.0.0 Safari/537.36" version="25.0.3">
  <diagram name="Page-1" id="c7558073-3199-34d8-9f00-42111426c3f3">
    <mxGraphModel dx="1876" dy="1741" grid="1" gridSize="10" guides="1" tooltips="1" connect="1" arrows="1" fold="1" page="1" pageScale="1" pageWidth="826" pageHeight="1169" background="none" math="0" shadow="0">
      <root>
        <mxCell id="0" />
        <mxCell id="1" parent="0" />
        <mxCell id="5" value="O Pensamento Computacional e a Formação Continuada de Professores da Educação Básica" style="shape=process;whiteSpace=wrap;align=center;verticalAlign=middle;size=0.0475;fontStyle=1;strokeWidth=3;fillColor=#FFCCCC" parent="1" vertex="1">
          <mxGeometry x="-170" y="-770" width="521" height="69" as="geometry" />
        </mxCell>
        <mxCell id="SkKkJVJDw8LlTHJwV8wK-104" value="Ecossistema de Aprendizagem" style="text;strokeColor=#d6b656;fillColor=#fff2cc;html=1;align=center;verticalAlign=middle;whiteSpace=wrap;rounded=0;fontSize=16;" vertex="1" parent="1">
          <mxGeometry x="400" y="-660" width="290" height="90" as="geometry" />
        </mxCell>
        <mxCell id="SkKkJVJDw8LlTHJwV8wK-106" style="edgeStyle=none;curved=1;rounded=0;orthogonalLoop=1;jettySize=auto;html=1;fontSize=12;startSize=8;endSize=8;exitX=1;exitY=1;exitDx=0;exitDy=0;" edge="1" parent="1" source="SkKkJVJDw8LlTHJwV8wK-105" target="SkKkJVJDw8LlTHJwV8wK-107">
          <mxGeometry relative="1" as="geometry">
            <mxPoint x="-100" y="-460" as="targetPoint" />
            <mxPoint x="-26.84210526315792" y="-530" as="sourcePoint" />
          </mxGeometry>
        </mxCell>
        <mxCell id="SkKkJVJDw8LlTHJwV8wK-111" value="" style="edgeStyle=none;curved=1;rounded=0;orthogonalLoop=1;jettySize=auto;html=1;fontSize=12;startSize=8;endSize=8;" edge="1" parent="1" source="SkKkJVJDw8LlTHJwV8wK-105" target="SkKkJVJDw8LlTHJwV8wK-108">
          <mxGeometry relative="1" as="geometry" />
        </mxCell>
        <mxCell id="SkKkJVJDw8LlTHJwV8wK-105" value="Arquitetura Pedagógica" style="text;strokeColor=#d6b656;fillColor=#fff2cc;html=1;align=center;verticalAlign=middle;whiteSpace=wrap;rounded=0;fontSize=16;" vertex="1" parent="1">
          <mxGeometry x="-400" y="-670" width="290" height="90" as="geometry" />
        </mxCell>
        <mxCell id="SkKkJVJDw8LlTHJwV8wK-114" value="" style="edgeStyle=none;curved=1;rounded=0;orthogonalLoop=1;jettySize=auto;html=1;fontSize=12;startSize=8;endSize=8;" edge="1" parent="1" source="SkKkJVJDw8LlTHJwV8wK-107" target="SkKkJVJDw8LlTHJwV8wK-113">
          <mxGeometry relative="1" as="geometry" />
        </mxCell>
        <mxCell id="SkKkJVJDw8LlTHJwV8wK-107" value="Aspectos Metodologicos" style="rounded=1;whiteSpace=wrap;html=1;fillColor=#dae8fc;strokeColor=#6c8ebf;" vertex="1" parent="1">
          <mxGeometry x="5" y="-515" width="110" height="70" as="geometry" />
        </mxCell>
        <mxCell id="SkKkJVJDw8LlTHJwV8wK-145" style="edgeStyle=none;curved=1;rounded=0;orthogonalLoop=1;jettySize=auto;html=1;fontSize=12;startSize=8;endSize=8;entryX=0.5;entryY=1;entryDx=0;entryDy=0;" edge="1" parent="1" source="SkKkJVJDw8LlTHJwV8wK-108" target="SkKkJVJDw8LlTHJwV8wK-146">
          <mxGeometry relative="1" as="geometry">
            <mxPoint x="-470" y="-760" as="targetPoint" />
          </mxGeometry>
        </mxCell>
        <mxCell id="SkKkJVJDw8LlTHJwV8wK-147" value="Objetivo" style="edgeLabel;html=1;align=center;verticalAlign=middle;resizable=0;points=[];fontSize=12;" vertex="1" connectable="0" parent="SkKkJVJDw8LlTHJwV8wK-145">
          <mxGeometry x="0.0822" y="2" relative="1" as="geometry">
            <mxPoint as="offset" />
          </mxGeometry>
        </mxCell>
        <mxCell id="SkKkJVJDw8LlTHJwV8wK-148" style="edgeStyle=none;curved=1;rounded=0;orthogonalLoop=1;jettySize=auto;html=1;fontSize=12;startSize=8;endSize=8;" edge="1" parent="1" source="SkKkJVJDw8LlTHJwV8wK-108">
          <mxGeometry relative="1" as="geometry">
            <mxPoint x="-430" y="-700" as="targetPoint" />
          </mxGeometry>
        </mxCell>
        <mxCell id="SkKkJVJDw8LlTHJwV8wK-151" value="Nome Curso" style="edgeLabel;html=1;align=center;verticalAlign=middle;resizable=0;points=[];fontSize=12;" vertex="1" connectable="0" parent="SkKkJVJDw8LlTHJwV8wK-148">
          <mxGeometry x="-0.1686" y="-1" relative="1" as="geometry">
            <mxPoint as="offset" />
          </mxGeometry>
        </mxCell>
        <mxCell id="SkKkJVJDw8LlTHJwV8wK-152" style="edgeStyle=none;curved=1;rounded=0;orthogonalLoop=1;jettySize=auto;html=1;fontSize=12;startSize=8;endSize=8;" edge="1" parent="1" source="SkKkJVJDw8LlTHJwV8wK-108">
          <mxGeometry relative="1" as="geometry">
            <mxPoint x="-670" y="-720" as="targetPoint" />
          </mxGeometry>
        </mxCell>
        <mxCell id="SkKkJVJDw8LlTHJwV8wK-153" value="Publico Alvo" style="edgeLabel;html=1;align=center;verticalAlign=middle;resizable=0;points=[];fontSize=12;" vertex="1" connectable="0" parent="SkKkJVJDw8LlTHJwV8wK-152">
          <mxGeometry x="-0.0027" y="-4" relative="1" as="geometry">
            <mxPoint as="offset" />
          </mxGeometry>
        </mxCell>
        <mxCell id="SkKkJVJDw8LlTHJwV8wK-155" style="edgeStyle=none;curved=1;rounded=0;orthogonalLoop=1;jettySize=auto;html=1;fontSize=12;startSize=8;endSize=8;" edge="1" parent="1" source="SkKkJVJDw8LlTHJwV8wK-108">
          <mxGeometry relative="1" as="geometry">
            <mxPoint x="-700" y="-560" as="targetPoint" />
          </mxGeometry>
        </mxCell>
        <mxCell id="SkKkJVJDw8LlTHJwV8wK-156" value="Carga Horária" style="edgeLabel;html=1;align=center;verticalAlign=middle;resizable=0;points=[];fontSize=12;" vertex="1" connectable="0" parent="SkKkJVJDw8LlTHJwV8wK-155">
          <mxGeometry x="-0.0847" y="4" relative="1" as="geometry">
            <mxPoint as="offset" />
          </mxGeometry>
        </mxCell>
        <mxCell id="SkKkJVJDw8LlTHJwV8wK-158" style="edgeStyle=none;curved=1;rounded=0;orthogonalLoop=1;jettySize=auto;html=1;fontSize=12;startSize=8;endSize=8;" edge="1" parent="1" source="SkKkJVJDw8LlTHJwV8wK-108" target="SkKkJVJDw8LlTHJwV8wK-159">
          <mxGeometry relative="1" as="geometry">
            <mxPoint x="-690" y="-520" as="targetPoint" />
          </mxGeometry>
        </mxCell>
        <mxCell id="SkKkJVJDw8LlTHJwV8wK-160" value="Modalidade" style="edgeLabel;html=1;align=center;verticalAlign=middle;resizable=0;points=[];fontSize=12;" vertex="1" connectable="0" parent="SkKkJVJDw8LlTHJwV8wK-158">
          <mxGeometry x="0.087" y="-2" relative="1" as="geometry">
            <mxPoint as="offset" />
          </mxGeometry>
        </mxCell>
        <mxCell id="SkKkJVJDw8LlTHJwV8wK-161" style="edgeStyle=none;curved=1;rounded=0;orthogonalLoop=1;jettySize=auto;html=1;fontSize=12;startSize=8;endSize=8;" edge="1" parent="1" source="SkKkJVJDw8LlTHJwV8wK-108">
          <mxGeometry relative="1" as="geometry">
            <mxPoint x="-460" y="-530" as="targetPoint" />
          </mxGeometry>
        </mxCell>
        <mxCell id="SkKkJVJDw8LlTHJwV8wK-162" value="Atores da Disciplina" style="edgeLabel;html=1;align=center;verticalAlign=middle;resizable=0;points=[];fontSize=12;" vertex="1" connectable="0" parent="SkKkJVJDw8LlTHJwV8wK-161">
          <mxGeometry x="-0.0179" y="2" relative="1" as="geometry">
            <mxPoint as="offset" />
          </mxGeometry>
        </mxCell>
        <mxCell id="SkKkJVJDw8LlTHJwV8wK-166" style="edgeStyle=none;curved=1;rounded=0;orthogonalLoop=1;jettySize=auto;html=1;fontSize=12;startSize=8;endSize=8;entryX=1;entryY=0.5;entryDx=0;entryDy=0;" edge="1" parent="1" source="SkKkJVJDw8LlTHJwV8wK-108" target="SkKkJVJDw8LlTHJwV8wK-168">
          <mxGeometry relative="1" as="geometry">
            <mxPoint x="-690" y="-660" as="targetPoint" />
          </mxGeometry>
        </mxCell>
        <mxCell id="SkKkJVJDw8LlTHJwV8wK-167" value="Tema" style="edgeLabel;html=1;align=center;verticalAlign=middle;resizable=0;points=[];fontSize=12;" vertex="1" connectable="0" parent="SkKkJVJDw8LlTHJwV8wK-166">
          <mxGeometry x="0.0932" y="-2" relative="1" as="geometry">
            <mxPoint as="offset" />
          </mxGeometry>
        </mxCell>
        <mxCell id="SkKkJVJDw8LlTHJwV8wK-108" value="Aspectos Organizacionais" style="rounded=1;whiteSpace=wrap;html=1;fillColor=#dae8fc;strokeColor=#6c8ebf;" vertex="1" parent="1">
          <mxGeometry x="-590" y="-624" width="160" height="40" as="geometry" />
        </mxCell>
        <mxCell id="SkKkJVJDw8LlTHJwV8wK-175" value="" style="edgeStyle=none;curved=1;rounded=0;orthogonalLoop=1;jettySize=auto;html=1;fontSize=12;startSize=8;endSize=8;" edge="1" parent="1" source="SkKkJVJDw8LlTHJwV8wK-109" target="SkKkJVJDw8LlTHJwV8wK-174">
          <mxGeometry relative="1" as="geometry" />
        </mxCell>
        <mxCell id="SkKkJVJDw8LlTHJwV8wK-109" value="Aspectos Tecnológicos" style="rounded=1;whiteSpace=wrap;html=1;fillColor=#dae8fc;strokeColor=#6c8ebf;" vertex="1" parent="1">
          <mxGeometry x="-690" y="-365" width="160" height="40" as="geometry" />
        </mxCell>
        <mxCell id="SkKkJVJDw8LlTHJwV8wK-129" value="" style="edgeStyle=none;curved=1;rounded=0;orthogonalLoop=1;jettySize=auto;html=1;fontSize=12;startSize=8;endSize=8;" edge="1" parent="1" source="SkKkJVJDw8LlTHJwV8wK-110" target="SkKkJVJDw8LlTHJwV8wK-128">
          <mxGeometry relative="1" as="geometry" />
        </mxCell>
        <mxCell id="SkKkJVJDw8LlTHJwV8wK-130" value="" style="edgeStyle=none;curved=1;rounded=0;orthogonalLoop=1;jettySize=auto;html=1;fontSize=12;startSize=8;endSize=8;" edge="1" parent="1" source="SkKkJVJDw8LlTHJwV8wK-110" target="SkKkJVJDw8LlTHJwV8wK-128">
          <mxGeometry relative="1" as="geometry" />
        </mxCell>
        <mxCell id="SkKkJVJDw8LlTHJwV8wK-131" value="" style="edgeStyle=none;curved=1;rounded=0;orthogonalLoop=1;jettySize=auto;html=1;fontSize=12;startSize=8;endSize=8;" edge="1" parent="1" source="SkKkJVJDw8LlTHJwV8wK-110" target="SkKkJVJDw8LlTHJwV8wK-128">
          <mxGeometry relative="1" as="geometry" />
        </mxCell>
        <mxCell id="SkKkJVJDw8LlTHJwV8wK-140" style="edgeStyle=none;curved=1;rounded=0;orthogonalLoop=1;jettySize=auto;html=1;entryX=0.5;entryY=0;entryDx=0;entryDy=0;fontSize=12;startSize=8;endSize=8;" edge="1" parent="1" source="SkKkJVJDw8LlTHJwV8wK-110" target="SkKkJVJDw8LlTHJwV8wK-137">
          <mxGeometry relative="1" as="geometry" />
        </mxCell>
        <mxCell id="SkKkJVJDw8LlTHJwV8wK-141" style="edgeStyle=none;curved=1;rounded=0;orthogonalLoop=1;jettySize=auto;html=1;fontSize=12;startSize=8;endSize=8;entryX=0.595;entryY=-0.093;entryDx=0;entryDy=0;entryPerimeter=0;" edge="1" parent="1" source="SkKkJVJDw8LlTHJwV8wK-110" target="SkKkJVJDw8LlTHJwV8wK-142">
          <mxGeometry relative="1" as="geometry">
            <mxPoint x="-330" y="-420" as="targetPoint" />
          </mxGeometry>
        </mxCell>
        <mxCell id="SkKkJVJDw8LlTHJwV8wK-143" style="edgeStyle=none;curved=1;rounded=0;orthogonalLoop=1;jettySize=auto;html=1;entryX=0;entryY=0.25;entryDx=0;entryDy=0;fontSize=12;startSize=8;endSize=8;" edge="1" parent="1" source="SkKkJVJDw8LlTHJwV8wK-110" target="SkKkJVJDw8LlTHJwV8wK-133">
          <mxGeometry relative="1" as="geometry" />
        </mxCell>
        <mxCell id="SkKkJVJDw8LlTHJwV8wK-144" style="edgeStyle=none;curved=1;rounded=0;orthogonalLoop=1;jettySize=auto;html=1;exitX=1;exitY=0.75;exitDx=0;exitDy=0;fontSize=12;startSize=8;endSize=8;" edge="1" parent="1" source="SkKkJVJDw8LlTHJwV8wK-110">
          <mxGeometry relative="1" as="geometry">
            <mxPoint x="-190" y="-485" as="targetPoint" />
          </mxGeometry>
        </mxCell>
        <mxCell id="SkKkJVJDw8LlTHJwV8wK-110" value="Conteúdo" style="rounded=1;whiteSpace=wrap;html=1;fillColor=#dae8fc;strokeColor=#6c8ebf;" vertex="1" parent="1">
          <mxGeometry x="-350" y="-515" width="160" height="40" as="geometry" />
        </mxCell>
        <mxCell id="SkKkJVJDw8LlTHJwV8wK-116" value="" style="edgeStyle=none;curved=1;rounded=0;orthogonalLoop=1;jettySize=auto;html=1;fontSize=12;startSize=8;endSize=8;" edge="1" parent="1" source="SkKkJVJDw8LlTHJwV8wK-113" target="SkKkJVJDw8LlTHJwV8wK-115">
          <mxGeometry relative="1" as="geometry" />
        </mxCell>
        <mxCell id="SkKkJVJDw8LlTHJwV8wK-121" value="" style="edgeStyle=none;curved=1;rounded=0;orthogonalLoop=1;jettySize=auto;html=1;fontSize=12;startSize=8;endSize=8;" edge="1" parent="1" source="SkKkJVJDw8LlTHJwV8wK-113" target="SkKkJVJDw8LlTHJwV8wK-120">
          <mxGeometry relative="1" as="geometry" />
        </mxCell>
        <mxCell id="SkKkJVJDw8LlTHJwV8wK-123" value="" style="edgeStyle=none;curved=1;rounded=0;orthogonalLoop=1;jettySize=auto;html=1;fontSize=12;startSize=8;endSize=8;" edge="1" parent="1" source="SkKkJVJDw8LlTHJwV8wK-113" target="SkKkJVJDw8LlTHJwV8wK-122">
          <mxGeometry relative="1" as="geometry" />
        </mxCell>
        <mxCell id="SkKkJVJDw8LlTHJwV8wK-124" style="edgeStyle=none;curved=1;rounded=0;orthogonalLoop=1;jettySize=auto;html=1;fontSize=12;startSize=8;endSize=8;exitX=0.569;exitY=1.091;exitDx=0;exitDy=0;exitPerimeter=0;" edge="1" parent="1" source="SkKkJVJDw8LlTHJwV8wK-113">
          <mxGeometry relative="1" as="geometry">
            <mxPoint x="80" y="-300" as="targetPoint" />
          </mxGeometry>
        </mxCell>
        <mxCell id="SkKkJVJDw8LlTHJwV8wK-139" style="edgeStyle=none;curved=1;rounded=0;orthogonalLoop=1;jettySize=auto;html=1;entryX=0;entryY=0.5;entryDx=0;entryDy=0;fontSize=12;startSize=8;endSize=8;" edge="1" parent="1" source="SkKkJVJDw8LlTHJwV8wK-113" target="SkKkJVJDw8LlTHJwV8wK-117">
          <mxGeometry relative="1" as="geometry" />
        </mxCell>
        <mxCell id="SkKkJVJDw8LlTHJwV8wK-171" style="edgeStyle=none;curved=1;rounded=0;orthogonalLoop=1;jettySize=auto;html=1;fontSize=12;startSize=8;endSize=8;entryX=0.824;entryY=0;entryDx=0;entryDy=0;entryPerimeter=0;" edge="1" parent="1" source="SkKkJVJDw8LlTHJwV8wK-113" target="SkKkJVJDw8LlTHJwV8wK-173">
          <mxGeometry relative="1" as="geometry">
            <mxPoint x="-30" y="-260" as="targetPoint" />
          </mxGeometry>
        </mxCell>
        <mxCell id="SkKkJVJDw8LlTHJwV8wK-113" value="Método" style="whiteSpace=wrap;html=1;rounded=1;fillColor=#1ba1e2;strokeColor=#006EAF;fontColor=#ffffff;" vertex="1" parent="1">
          <mxGeometry x="-10" y="-415" width="140" height="35" as="geometry" />
        </mxCell>
        <mxCell id="SkKkJVJDw8LlTHJwV8wK-115" value="Autoinstrucional" style="whiteSpace=wrap;html=1;rounded=1;" vertex="1" parent="1">
          <mxGeometry x="115" y="-345" width="120" height="30" as="geometry" />
        </mxCell>
        <mxCell id="SkKkJVJDw8LlTHJwV8wK-117" value="Disponibilização de Atividades&amp;nbsp;" style="whiteSpace=wrap;html=1;rounded=1;" vertex="1" parent="1">
          <mxGeometry x="180" y="-400" width="120" height="30" as="geometry" />
        </mxCell>
        <mxCell id="SkKkJVJDw8LlTHJwV8wK-120" value="Seleção do Conteúdo a ser apresentado" style="whiteSpace=wrap;html=1;rounded=1;" vertex="1" parent="1">
          <mxGeometry x="160" y="-470" width="120" height="30" as="geometry" />
        </mxCell>
        <mxCell id="SkKkJVJDw8LlTHJwV8wK-122" value="Recomendação de Material para estudo&amp;nbsp;" style="whiteSpace=wrap;html=1;rounded=1;" vertex="1" parent="1">
          <mxGeometry x="-125" y="-365" width="130" height="30" as="geometry" />
        </mxCell>
        <mxCell id="SkKkJVJDw8LlTHJwV8wK-125" value="Atividades por módulo" style="whiteSpace=wrap;html=1;rounded=1;" vertex="1" parent="1">
          <mxGeometry x="80" y="-300" width="130" height="30" as="geometry" />
        </mxCell>
        <mxCell id="SkKkJVJDw8LlTHJwV8wK-126" style="edgeStyle=none;curved=1;rounded=0;orthogonalLoop=1;jettySize=auto;html=1;exitX=0.75;exitY=1;exitDx=0;exitDy=0;fontSize=12;startSize=8;endSize=8;" edge="1" parent="1" source="SkKkJVJDw8LlTHJwV8wK-122" target="SkKkJVJDw8LlTHJwV8wK-122">
          <mxGeometry relative="1" as="geometry" />
        </mxCell>
        <mxCell id="SkKkJVJDw8LlTHJwV8wK-127" style="edgeStyle=none;curved=1;rounded=0;orthogonalLoop=1;jettySize=auto;html=1;entryX=0.607;entryY=0;entryDx=0;entryDy=0;entryPerimeter=0;fontSize=12;startSize=8;endSize=8;" edge="1" parent="1" source="SkKkJVJDw8LlTHJwV8wK-105" target="SkKkJVJDw8LlTHJwV8wK-110">
          <mxGeometry relative="1" as="geometry" />
        </mxCell>
        <mxCell id="SkKkJVJDw8LlTHJwV8wK-128" value="Pensamento COmputacional" style="whiteSpace=wrap;html=1;rounded=1;" vertex="1" parent="1">
          <mxGeometry x="-520" y="-445" width="120" height="30" as="geometry" />
        </mxCell>
        <mxCell id="SkKkJVJDw8LlTHJwV8wK-133" value="Computação Plugada" style="whiteSpace=wrap;html=1;rounded=1;" vertex="1" parent="1">
          <mxGeometry x="-160" y="-460" width="120" height="30" as="geometry" />
        </mxCell>
        <mxCell id="SkKkJVJDw8LlTHJwV8wK-137" value="Metodologias Ativas&amp;nbsp;" style="whiteSpace=wrap;html=1;rounded=1;" vertex="1" parent="1">
          <mxGeometry x="-270" y="-400" width="140" height="30" as="geometry" />
        </mxCell>
        <mxCell id="SkKkJVJDw8LlTHJwV8wK-142" value="Computação Desplugada" style="whiteSpace=wrap;html=1;rounded=1;" vertex="1" parent="1">
          <mxGeometry x="-413" y="-400" width="120" height="30" as="geometry" />
        </mxCell>
        <mxCell id="SkKkJVJDw8LlTHJwV8wK-146" value="Capacitar professores para desenvolver estratégias pedagógicas voltadas ao planejamento e implementação de atividades que promovam o desenvolvimento das habilidades do Pensamento Computacional." style="rounded=1;whiteSpace=wrap;html=1;" vertex="1" parent="1">
          <mxGeometry x="-710" y="-830" width="320" height="60" as="geometry" />
        </mxCell>
        <mxCell id="SkKkJVJDw8LlTHJwV8wK-150" value="&lt;span style=&quot;font-weight: 700;&quot;&gt;O Pensamento Computacional e a Formação Continuada de Professores da Educação Básica&lt;/span&gt;" style="rounded=1;whiteSpace=wrap;html=1;" vertex="1" parent="1">
          <mxGeometry x="-480" y="-761" width="210" height="60" as="geometry" />
        </mxCell>
        <mxCell id="SkKkJVJDw8LlTHJwV8wK-154" value="Professores da Educação Básica" style="rounded=1;whiteSpace=wrap;html=1;" vertex="1" parent="1">
          <mxGeometry x="-790" y="-761" width="120" height="60" as="geometry" />
        </mxCell>
        <mxCell id="SkKkJVJDw8LlTHJwV8wK-157" value="60 horas" style="rounded=1;whiteSpace=wrap;html=1;" vertex="1" parent="1">
          <mxGeometry x="-826" y="-590" width="120" height="60" as="geometry" />
        </mxCell>
        <mxCell id="SkKkJVJDw8LlTHJwV8wK-159" value="Oline&amp;nbsp; Autoinstrucional" style="rounded=1;whiteSpace=wrap;html=1;" vertex="1" parent="1">
          <mxGeometry x="-710" y="-525" width="120" height="60" as="geometry" />
        </mxCell>
        <mxCell id="SkKkJVJDw8LlTHJwV8wK-165" value="Professores, alunos de Licenciatura e demais interessados no tema" style="rounded=1;whiteSpace=wrap;html=1;" vertex="1" parent="1">
          <mxGeometry x="-520" y="-525" width="120" height="60" as="geometry" />
        </mxCell>
        <mxCell id="SkKkJVJDw8LlTHJwV8wK-168" value="Pensamento Computacional na Educação Básica" style="rounded=1;whiteSpace=wrap;html=1;" vertex="1" parent="1">
          <mxGeometry x="-810" y="-670" width="120" height="60" as="geometry" />
        </mxCell>
        <mxCell id="SkKkJVJDw8LlTHJwV8wK-173" value="Construção de objetos de aprendizagem." style="rounded=1;whiteSpace=wrap;html=1;" vertex="1" parent="1">
          <mxGeometry x="-120" y="-300" width="170" height="30" as="geometry" />
        </mxCell>
        <mxCell id="SkKkJVJDw8LlTHJwV8wK-174" value="" style="whiteSpace=wrap;html=1;rounded=1;" vertex="1" parent="1">
          <mxGeometry x="-670" y="-215" width="120" height="60" as="geometry" />
        </mxCell>
      </root>
    </mxGraphModel>
  </diagram>
</mxfile>
